<mxfile host="app.diagrams.net" modified="2024-01-11T13:04:24.546Z" agent="Mozilla/5.0 (Windows NT 10.0; Win64; x64) AppleWebKit/537.36 (KHTML, like Gecko) Chrome/120.0.0.0 Safari/537.36" etag="ygsU_nVb3g6c_YhpOMZJ" version="22.1.18" type="github">
  <diagram name="Page-1" id="ux_PUUvleqaBWZlEBw-f">
    <mxGraphModel dx="932" dy="2015" grid="1" gridSize="10" guides="1" tooltips="1" connect="1" arrows="1" fold="1" page="1" pageScale="1" pageWidth="850" pageHeight="1100" math="0" shadow="0">
      <root>
        <mxCell id="0" />
        <mxCell id="1" parent="0" />
        <mxCell id="RruQv3TNjF2r6rg1G-1i-4" value="" style="verticalLabelPosition=bottom;verticalAlign=top;html=1;shape=mxgraph.basic.polygon;polyCoords=[[0,0.25],[0.5,0],[1,0.25],[1,0.75],[0.5,1],[0,0.75],[0,0.25]];polyline=1;fillColor=default;perimeter=rectanglePerimeter;" parent="1" vertex="1">
          <mxGeometry x="110" y="-930.0000000000001" width="75.25" height="86" as="geometry" />
        </mxCell>
        <mxCell id="RruQv3TNjF2r6rg1G-1i-8" value="&lt;font style=&quot;font-size: 10px;&quot;&gt;&lt;b style=&quot;border-color: var(--border-color); text-align: center;&quot;&gt;Pod&amp;nbsp;&lt;/b&gt;&lt;span style=&quot;border-color: var(--border-color); text-align: center;&quot;&gt;10.244.0.1&lt;/span&gt;&lt;/font&gt;" style="text;whiteSpace=wrap;html=1;rotation=0;" parent="1" vertex="1">
          <mxGeometry x="111.57" y="-901.8100000000001" width="68.12" height="27" as="geometry" />
        </mxCell>
        <mxCell id="dw3Hb77Bc445a3Hw7hz_-9" value="" style="verticalLabelPosition=bottom;verticalAlign=top;html=1;shape=mxgraph.basic.polygon;polyCoords=[[0,0.25],[0.5,0],[1,0.25],[1,0.75],[0.5,1],[0,0.75],[0,0.25]];polyline=1;fillColor=default;perimeter=rectanglePerimeter;" parent="1" vertex="1">
          <mxGeometry x="110" y="-826.82" width="75.25" height="86" as="geometry" />
        </mxCell>
        <mxCell id="dw3Hb77Bc445a3Hw7hz_-10" value="&lt;font style=&quot;font-size: 10px;&quot;&gt;&lt;b style=&quot;border-color: var(--border-color); text-align: center;&quot;&gt;Pod&amp;nbsp;&lt;/b&gt;&lt;span style=&quot;border-color: var(--border-color); text-align: center;&quot;&gt;10.244.0.2&lt;/span&gt;&lt;/font&gt;" style="text;whiteSpace=wrap;html=1;rotation=0;" parent="1" vertex="1">
          <mxGeometry x="111.57000000000005" y="-796.63" width="68.12" height="27" as="geometry" />
        </mxCell>
        <mxCell id="dw3Hb77Bc445a3Hw7hz_-11" value="" style="verticalLabelPosition=bottom;verticalAlign=top;html=1;shape=mxgraph.basic.polygon;polyCoords=[[0,0.25],[0.5,0],[1,0.25],[1,0.75],[0.5,1],[0,0.75],[0,0.25]];polyline=1;fillColor=default;perimeter=rectanglePerimeter;" parent="1" vertex="1">
          <mxGeometry x="110" y="-725.82" width="75.25" height="86" as="geometry" />
        </mxCell>
        <mxCell id="dw3Hb77Bc445a3Hw7hz_-12" value="&lt;font style=&quot;font-size: 10px;&quot;&gt;&lt;b style=&quot;border-color: var(--border-color); text-align: center;&quot;&gt;Pod&amp;nbsp;&lt;/b&gt;&lt;span style=&quot;border-color: var(--border-color); text-align: center;&quot;&gt;10.244.0.3&lt;/span&gt;&lt;/font&gt;" style="text;whiteSpace=wrap;html=1;rotation=0;" parent="1" vertex="1">
          <mxGeometry x="111.57000000000005" y="-695.63" width="68.12" height="27" as="geometry" />
        </mxCell>
        <mxCell id="YKB5RN-4gdlWT_EcJPIz-1" value="App" style="text;html=1;strokeColor=none;fillColor=none;align=center;verticalAlign=middle;whiteSpace=wrap;rounded=0;" parent="1" vertex="1">
          <mxGeometry x="125.63" y="-921.81" width="40" height="20" as="geometry" />
        </mxCell>
        <mxCell id="YKB5RN-4gdlWT_EcJPIz-2" value="App" style="text;html=1;strokeColor=none;fillColor=none;align=center;verticalAlign=middle;whiteSpace=wrap;rounded=0;" parent="1" vertex="1">
          <mxGeometry x="126.63" y="-819.81" width="40" height="20" as="geometry" />
        </mxCell>
        <mxCell id="YKB5RN-4gdlWT_EcJPIz-3" value="App" style="text;html=1;strokeColor=none;fillColor=none;align=center;verticalAlign=middle;whiteSpace=wrap;rounded=0;" parent="1" vertex="1">
          <mxGeometry x="127.63" y="-718.81" width="40" height="20" as="geometry" />
        </mxCell>
        <mxCell id="YKB5RN-4gdlWT_EcJPIz-4" value="" style="rounded=1;whiteSpace=wrap;html=1;fillColor=none;strokeWidth=0.5;dashed=1;dashPattern=8 8;" parent="1" vertex="1">
          <mxGeometry x="86.63" y="-965.13" width="120" height="345.13" as="geometry" />
        </mxCell>
        <mxCell id="YKB5RN-4gdlWT_EcJPIz-5" value="Application Layer" style="text;html=1;strokeColor=none;fillColor=none;align=center;verticalAlign=middle;whiteSpace=wrap;rounded=0;" parent="1" vertex="1">
          <mxGeometry x="95.44" y="-965.13" width="102.37" height="30" as="geometry" />
        </mxCell>
        <mxCell id="YKB5RN-4gdlWT_EcJPIz-6" value="" style="verticalLabelPosition=bottom;verticalAlign=top;html=1;shape=mxgraph.basic.polygon;polyCoords=[[0,0.25],[0.5,0],[1,0.25],[1,0.75],[0.5,1],[0,0.75],[0,0.25]];polyline=1;fillColor=default;perimeter=rectanglePerimeter;" parent="1" vertex="1">
          <mxGeometry x="303.37" y="-930.0000000000001" width="75.25" height="86" as="geometry" />
        </mxCell>
        <mxCell id="YKB5RN-4gdlWT_EcJPIz-7" value="&lt;font style=&quot;font-size: 10px;&quot;&gt;&lt;b style=&quot;border-color: var(--border-color); text-align: center;&quot;&gt;Pod&amp;nbsp;&lt;/b&gt;&lt;span style=&quot;border-color: var(--border-color); text-align: center;&quot;&gt;10.244.0.4&lt;/span&gt;&lt;/font&gt;" style="text;whiteSpace=wrap;html=1;rotation=0;" parent="1" vertex="1">
          <mxGeometry x="304.94" y="-911.8100000000001" width="68.12" height="27" as="geometry" />
        </mxCell>
        <mxCell id="YKB5RN-4gdlWT_EcJPIz-8" value="" style="verticalLabelPosition=bottom;verticalAlign=top;html=1;shape=mxgraph.basic.polygon;polyCoords=[[0,0.25],[0.5,0],[1,0.25],[1,0.75],[0.5,1],[0,0.75],[0,0.25]];polyline=1;fillColor=default;perimeter=rectanglePerimeter;" parent="1" vertex="1">
          <mxGeometry x="303.37" y="-828.82" width="75.25" height="86" as="geometry" />
        </mxCell>
        <mxCell id="YKB5RN-4gdlWT_EcJPIz-9" value="&lt;font style=&quot;font-size: 10px;&quot;&gt;&lt;b style=&quot;border-color: var(--border-color); text-align: center;&quot;&gt;Pod&amp;nbsp;&lt;/b&gt;&lt;span style=&quot;border-color: var(--border-color); text-align: center;&quot;&gt;10.244.0.5&lt;/span&gt;&lt;/font&gt;" style="text;whiteSpace=wrap;html=1;rotation=0;" parent="1" vertex="1">
          <mxGeometry x="304.94000000000005" y="-808.63" width="68.12" height="27" as="geometry" />
        </mxCell>
        <mxCell id="YKB5RN-4gdlWT_EcJPIz-10" value="" style="verticalLabelPosition=bottom;verticalAlign=top;html=1;shape=mxgraph.basic.polygon;polyCoords=[[0,0.25],[0.5,0],[1,0.25],[1,0.75],[0.5,1],[0,0.75],[0,0.25]];polyline=1;fillColor=default;perimeter=rectanglePerimeter;" parent="1" vertex="1">
          <mxGeometry x="303.37" y="-728.82" width="75.25" height="86" as="geometry" />
        </mxCell>
        <mxCell id="YKB5RN-4gdlWT_EcJPIz-11" value="&lt;font style=&quot;font-size: 10px;&quot;&gt;&lt;b style=&quot;border-color: var(--border-color); text-align: center;&quot;&gt;Pod&amp;nbsp;&lt;/b&gt;&lt;span style=&quot;border-color: var(--border-color); text-align: center;&quot;&gt;10.244.0.6&lt;/span&gt;&lt;/font&gt;" style="text;whiteSpace=wrap;html=1;rotation=0;" parent="1" vertex="1">
          <mxGeometry x="304.94000000000005" y="-708.63" width="68.12" height="27" as="geometry" />
        </mxCell>
        <mxCell id="YKB5RN-4gdlWT_EcJPIz-12" value="&lt;font style=&quot;font-size: 11px;&quot;&gt;Backend&lt;/font&gt;" style="text;html=1;strokeColor=none;fillColor=none;align=center;verticalAlign=middle;whiteSpace=wrap;rounded=0;" parent="1" vertex="1">
          <mxGeometry x="319" y="-919.81" width="40" height="20" as="geometry" />
        </mxCell>
        <mxCell id="YKB5RN-4gdlWT_EcJPIz-13" value="&lt;font style=&quot;font-size: 11px;&quot;&gt;Backend&lt;/font&gt;" style="text;html=1;strokeColor=none;fillColor=none;align=center;verticalAlign=middle;whiteSpace=wrap;rounded=0;" parent="1" vertex="1">
          <mxGeometry x="320" y="-817.81" width="40" height="20" as="geometry" />
        </mxCell>
        <mxCell id="YKB5RN-4gdlWT_EcJPIz-14" value="&lt;font style=&quot;font-size: 11px;&quot;&gt;Backend&lt;/font&gt;" style="text;html=1;strokeColor=none;fillColor=none;align=center;verticalAlign=middle;whiteSpace=wrap;rounded=0;" parent="1" vertex="1">
          <mxGeometry x="321" y="-718.81" width="40" height="20" as="geometry" />
        </mxCell>
        <mxCell id="YKB5RN-4gdlWT_EcJPIz-16" value="Backend Layer" style="text;html=1;strokeColor=none;fillColor=none;align=center;verticalAlign=middle;whiteSpace=wrap;rounded=0;" parent="1" vertex="1">
          <mxGeometry x="288.81" y="-965.13" width="102.37" height="30" as="geometry" />
        </mxCell>
        <mxCell id="YKB5RN-4gdlWT_EcJPIz-17" value="" style="verticalLabelPosition=bottom;verticalAlign=top;html=1;shape=mxgraph.basic.polygon;polyCoords=[[0,0.25],[0.5,0],[1,0.25],[1,0.75],[0.5,1],[0,0.75],[0,0.25]];polyline=1;fillColor=default;perimeter=rectanglePerimeter;" parent="1" vertex="1">
          <mxGeometry x="493.37" y="-930.0000000000001" width="75.25" height="86" as="geometry" />
        </mxCell>
        <mxCell id="YKB5RN-4gdlWT_EcJPIz-18" value="&lt;font style=&quot;font-size: 10px;&quot;&gt;&lt;b style=&quot;border-color: var(--border-color); text-align: center;&quot;&gt;Pod&amp;nbsp;&lt;/b&gt;&lt;span style=&quot;border-color: var(--border-color); text-align: center;&quot;&gt;10.244.0.7&lt;/span&gt;&lt;/font&gt;" style="text;whiteSpace=wrap;html=1;rotation=0;" parent="1" vertex="1">
          <mxGeometry x="494.94000000000005" y="-901.8100000000001" width="68.12" height="27" as="geometry" />
        </mxCell>
        <mxCell id="YKB5RN-4gdlWT_EcJPIz-19" value="" style="verticalLabelPosition=bottom;verticalAlign=top;html=1;shape=mxgraph.basic.polygon;polyCoords=[[0,0.25],[0.5,0],[1,0.25],[1,0.75],[0.5,1],[0,0.75],[0,0.25]];polyline=1;fillColor=default;perimeter=rectanglePerimeter;" parent="1" vertex="1">
          <mxGeometry x="493.37" y="-828.82" width="75.25" height="86" as="geometry" />
        </mxCell>
        <mxCell id="YKB5RN-4gdlWT_EcJPIz-20" value="&lt;font style=&quot;font-size: 10px;&quot;&gt;&lt;b style=&quot;border-color: var(--border-color); text-align: center;&quot;&gt;Pod&amp;nbsp;&lt;/b&gt;&lt;span style=&quot;border-color: var(--border-color); text-align: center;&quot;&gt;10.244.0.8&lt;/span&gt;&lt;/font&gt;" style="text;whiteSpace=wrap;html=1;rotation=0;" parent="1" vertex="1">
          <mxGeometry x="494.94000000000005" y="-798.63" width="68.12" height="27" as="geometry" />
        </mxCell>
        <mxCell id="YKB5RN-4gdlWT_EcJPIz-21" value="" style="verticalLabelPosition=bottom;verticalAlign=top;html=1;shape=mxgraph.basic.polygon;polyCoords=[[0,0.25],[0.5,0],[1,0.25],[1,0.75],[0.5,1],[0,0.75],[0,0.25]];polyline=1;fillColor=default;perimeter=rectanglePerimeter;" parent="1" vertex="1">
          <mxGeometry x="493.37" y="-728.82" width="75.25" height="86" as="geometry" />
        </mxCell>
        <mxCell id="YKB5RN-4gdlWT_EcJPIz-22" value="&lt;font style=&quot;font-size: 10px;&quot;&gt;&lt;b style=&quot;border-color: var(--border-color); text-align: center;&quot;&gt;Pod&amp;nbsp;&lt;/b&gt;&lt;span style=&quot;border-color: var(--border-color); text-align: center;&quot;&gt;10.244.0.9&lt;/span&gt;&lt;/font&gt;" style="text;whiteSpace=wrap;html=1;rotation=0;" parent="1" vertex="1">
          <mxGeometry x="494.94000000000005" y="-698.63" width="68.12" height="27" as="geometry" />
        </mxCell>
        <mxCell id="YKB5RN-4gdlWT_EcJPIz-23" value="&lt;font style=&quot;font-size: 11px;&quot;&gt;Storage&lt;/font&gt;" style="text;html=1;strokeColor=none;fillColor=none;align=center;verticalAlign=middle;whiteSpace=wrap;rounded=0;" parent="1" vertex="1">
          <mxGeometry x="509" y="-921.81" width="40" height="20" as="geometry" />
        </mxCell>
        <mxCell id="YKB5RN-4gdlWT_EcJPIz-27" value="Storage Layer" style="text;html=1;strokeColor=none;fillColor=none;align=center;verticalAlign=middle;whiteSpace=wrap;rounded=0;" parent="1" vertex="1">
          <mxGeometry x="478.81" y="-965.13" width="102.37" height="30" as="geometry" />
        </mxCell>
        <mxCell id="YKB5RN-4gdlWT_EcJPIz-30" value="&lt;font style=&quot;font-size: 11px;&quot;&gt;Storage&lt;/font&gt;" style="text;html=1;strokeColor=none;fillColor=none;align=center;verticalAlign=middle;whiteSpace=wrap;rounded=0;" parent="1" vertex="1">
          <mxGeometry x="509" y="-817.81" width="40" height="20" as="geometry" />
        </mxCell>
        <mxCell id="YKB5RN-4gdlWT_EcJPIz-31" value="&lt;font style=&quot;font-size: 11px;&quot;&gt;Storage&lt;/font&gt;" style="text;html=1;strokeColor=none;fillColor=none;align=center;verticalAlign=middle;whiteSpace=wrap;rounded=0;" parent="1" vertex="1">
          <mxGeometry x="509" y="-721.81" width="40" height="20" as="geometry" />
        </mxCell>
        <mxCell id="YKB5RN-4gdlWT_EcJPIz-32" value="" style="rounded=1;whiteSpace=wrap;html=1;" parent="1" vertex="1">
          <mxGeometry x="230" y="-909.41" width="29" height="259.41" as="geometry" />
        </mxCell>
        <mxCell id="YKB5RN-4gdlWT_EcJPIz-33" value="&lt;font style=&quot;font-size: 10px;&quot;&gt;80&lt;/font&gt;" style="rounded=1;whiteSpace=wrap;html=1;rotation=30;" parent="1" vertex="1">
          <mxGeometry x="314.66" y="-666.91" width="20" height="13.33" as="geometry" />
        </mxCell>
        <mxCell id="YKB5RN-4gdlWT_EcJPIz-34" value="&lt;font style=&quot;font-size: 10px;&quot;&gt;80&lt;/font&gt;" style="rounded=1;whiteSpace=wrap;html=1;rotation=30;" parent="1" vertex="1">
          <mxGeometry x="313.66" y="-766.91" width="20" height="12.33" as="geometry" />
        </mxCell>
        <mxCell id="YKB5RN-4gdlWT_EcJPIz-35" value="&lt;font style=&quot;font-size: 10px;&quot;&gt;80&lt;/font&gt;" style="rounded=1;whiteSpace=wrap;html=1;rotation=30;" parent="1" vertex="1">
          <mxGeometry x="315.66" y="-866.91" width="20" height="12.33" as="geometry" />
        </mxCell>
        <mxCell id="YKB5RN-4gdlWT_EcJPIz-36" value="&lt;font style=&quot;font-size: 10px;&quot;&gt;80&lt;/font&gt;" style="rounded=1;whiteSpace=wrap;html=1;rotation=-90;" parent="1" vertex="1">
          <mxGeometry x="247.66000000000003" y="-785.87" width="20" height="12.33" as="geometry" />
        </mxCell>
        <mxCell id="YKB5RN-4gdlWT_EcJPIz-37" value="" style="endArrow=classic;html=1;rounded=0;exitX=0.997;exitY=0.5;exitDx=0;exitDy=0;exitPerimeter=0;entryX=0;entryY=0.5;entryDx=0;entryDy=0;" parent="1" source="RruQv3TNjF2r6rg1G-1i-4" target="YKB5RN-4gdlWT_EcJPIz-32" edge="1">
          <mxGeometry width="50" height="50" relative="1" as="geometry">
            <mxPoint x="440" y="-670" as="sourcePoint" />
            <mxPoint x="490" y="-720" as="targetPoint" />
          </mxGeometry>
        </mxCell>
        <mxCell id="YKB5RN-4gdlWT_EcJPIz-38" value="" style="endArrow=classic;html=1;rounded=0;exitX=0.997;exitY=0.544;exitDx=0;exitDy=0;exitPerimeter=0;entryX=0;entryY=0.5;entryDx=0;entryDy=0;" parent="1" source="dw3Hb77Bc445a3Hw7hz_-9" target="YKB5RN-4gdlWT_EcJPIz-32" edge="1">
          <mxGeometry width="50" height="50" relative="1" as="geometry">
            <mxPoint x="195" y="-877" as="sourcePoint" />
            <mxPoint x="240" y="-770" as="targetPoint" />
          </mxGeometry>
        </mxCell>
        <mxCell id="YKB5RN-4gdlWT_EcJPIz-39" value="" style="endArrow=classic;html=1;rounded=0;exitX=1.001;exitY=0.491;exitDx=0;exitDy=0;exitPerimeter=0;entryX=0;entryY=0.5;entryDx=0;entryDy=0;" parent="1" source="dw3Hb77Bc445a3Hw7hz_-11" target="YKB5RN-4gdlWT_EcJPIz-32" edge="1">
          <mxGeometry width="50" height="50" relative="1" as="geometry">
            <mxPoint x="195" y="-772" as="sourcePoint" />
            <mxPoint x="240" y="-770" as="targetPoint" />
          </mxGeometry>
        </mxCell>
        <mxCell id="YKB5RN-4gdlWT_EcJPIz-40" value="" style="endArrow=classic;html=1;rounded=0;exitX=0.5;exitY=1;exitDx=0;exitDy=0;entryX=0.234;entryY=0.867;entryDx=0;entryDy=0;entryPerimeter=0;" parent="1" source="YKB5RN-4gdlWT_EcJPIz-36" target="YKB5RN-4gdlWT_EcJPIz-6" edge="1">
          <mxGeometry width="50" height="50" relative="1" as="geometry">
            <mxPoint x="390" y="-650" as="sourcePoint" />
            <mxPoint x="440" y="-700" as="targetPoint" />
          </mxGeometry>
        </mxCell>
        <mxCell id="YKB5RN-4gdlWT_EcJPIz-41" value="" style="endArrow=classic;html=1;rounded=0;exitX=0.5;exitY=1;exitDx=0;exitDy=0;entryX=0.5;entryY=1;entryDx=0;entryDy=0;" parent="1" source="YKB5RN-4gdlWT_EcJPIz-36" target="YKB5RN-4gdlWT_EcJPIz-34" edge="1">
          <mxGeometry width="50" height="50" relative="1" as="geometry">
            <mxPoint x="274" y="-770" as="sourcePoint" />
            <mxPoint x="331" y="-845" as="targetPoint" />
            <Array as="points">
              <mxPoint x="280" y="-750" />
            </Array>
          </mxGeometry>
        </mxCell>
        <mxCell id="YKB5RN-4gdlWT_EcJPIz-42" value="" style="endArrow=classic;html=1;rounded=0;exitX=0.488;exitY=1.047;exitDx=0;exitDy=0;exitPerimeter=0;entryX=0.225;entryY=0.858;entryDx=0;entryDy=0;entryPerimeter=0;" parent="1" source="YKB5RN-4gdlWT_EcJPIz-36" target="YKB5RN-4gdlWT_EcJPIz-10" edge="1">
          <mxGeometry width="50" height="50" relative="1" as="geometry">
            <mxPoint x="270" y="-780" as="sourcePoint" />
            <mxPoint x="290" y="-670" as="targetPoint" />
            <Array as="points">
              <mxPoint x="280" y="-650" />
            </Array>
          </mxGeometry>
        </mxCell>
        <mxCell id="YKB5RN-4gdlWT_EcJPIz-61" value="" style="rounded=1;whiteSpace=wrap;html=1;" parent="1" vertex="1">
          <mxGeometry x="425" y="-909.41" width="29" height="259.41" as="geometry" />
        </mxCell>
        <mxCell id="YKB5RN-4gdlWT_EcJPIz-63" value="" style="endArrow=classic;html=1;rounded=0;entryX=0;entryY=0.5;entryDx=0;entryDy=0;exitX=0.989;exitY=0.529;exitDx=0;exitDy=0;exitPerimeter=0;" parent="1" source="YKB5RN-4gdlWT_EcJPIz-8" target="YKB5RN-4gdlWT_EcJPIz-61" edge="1">
          <mxGeometry width="50" height="50" relative="1" as="geometry">
            <mxPoint x="389" y="-875" as="sourcePoint" />
            <mxPoint x="435" y="-772" as="targetPoint" />
          </mxGeometry>
        </mxCell>
        <mxCell id="YKB5RN-4gdlWT_EcJPIz-64" value="" style="endArrow=classic;html=1;rounded=0;exitX=1;exitY=0.485;exitDx=0;exitDy=0;exitPerimeter=0;entryX=0;entryY=0.5;entryDx=0;entryDy=0;" parent="1" source="YKB5RN-4gdlWT_EcJPIz-10" target="YKB5RN-4gdlWT_EcJPIz-61" edge="1">
          <mxGeometry width="50" height="50" relative="1" as="geometry">
            <mxPoint x="310" y="-690" as="sourcePoint" />
            <mxPoint x="360" y="-740" as="targetPoint" />
          </mxGeometry>
        </mxCell>
        <mxCell id="YKB5RN-4gdlWT_EcJPIz-65" value="" style="endArrow=classic;html=1;rounded=0;entryX=-0.012;entryY=0.537;entryDx=0;entryDy=0;entryPerimeter=0;exitX=1;exitY=0.5;exitDx=0;exitDy=0;" parent="1" source="YKB5RN-4gdlWT_EcJPIz-61" target="YKB5RN-4gdlWT_EcJPIz-17" edge="1">
          <mxGeometry width="50" height="50" relative="1" as="geometry">
            <mxPoint x="350" y="-710" as="sourcePoint" />
            <mxPoint x="400" y="-760" as="targetPoint" />
          </mxGeometry>
        </mxCell>
        <mxCell id="YKB5RN-4gdlWT_EcJPIz-66" value="" style="endArrow=classic;html=1;rounded=0;entryX=0.004;entryY=0.564;entryDx=0;entryDy=0;entryPerimeter=0;exitX=1;exitY=0.5;exitDx=0;exitDy=0;" parent="1" source="YKB5RN-4gdlWT_EcJPIz-61" target="YKB5RN-4gdlWT_EcJPIz-19" edge="1">
          <mxGeometry width="50" height="50" relative="1" as="geometry">
            <mxPoint x="450" y="-780" as="sourcePoint" />
            <mxPoint x="502" y="-874" as="targetPoint" />
          </mxGeometry>
        </mxCell>
        <mxCell id="YKB5RN-4gdlWT_EcJPIz-67" value="" style="endArrow=classic;html=1;rounded=0;entryX=-0.018;entryY=0.501;entryDx=0;entryDy=0;entryPerimeter=0;exitX=1;exitY=0.5;exitDx=0;exitDy=0;" parent="1" source="YKB5RN-4gdlWT_EcJPIz-61" target="YKB5RN-4gdlWT_EcJPIz-21" edge="1">
          <mxGeometry width="50" height="50" relative="1" as="geometry">
            <mxPoint x="450" y="-780" as="sourcePoint" />
            <mxPoint x="512" y="-864" as="targetPoint" />
          </mxGeometry>
        </mxCell>
        <mxCell id="YKB5RN-4gdlWT_EcJPIz-68" value="name: backend&amp;nbsp; ip-address: &quot;cluster-ip&quot;" style="text;html=1;strokeColor=none;fillColor=none;align=center;verticalAlign=middle;whiteSpace=wrap;rounded=0;rotation=-90;" parent="1" vertex="1">
          <mxGeometry x="114.61999999999999" y="-807.56" width="259.75" height="30" as="geometry" />
        </mxCell>
        <mxCell id="YKB5RN-4gdlWT_EcJPIz-69" value="..." style="text;html=1;strokeColor=none;fillColor=none;align=center;verticalAlign=middle;whiteSpace=wrap;rounded=0;rotation=-90;" parent="1" vertex="1">
          <mxGeometry x="384.94" y="-794.7" width="110" height="30" as="geometry" />
        </mxCell>
        <mxCell id="YKB5RN-4gdlWT_EcJPIz-71" value="" style="rounded=1;whiteSpace=wrap;html=1;fillColor=none;strokeWidth=0.5;dashed=1;dashPattern=8 8;" parent="1" vertex="1">
          <mxGeometry x="281" y="-965.1199999999999" width="120" height="345.13" as="geometry" />
        </mxCell>
        <mxCell id="ECn-hsQNccgbCTv3DtMF-1" value="&lt;font style=&quot;font-size: 10px;&quot;&gt;80&lt;/font&gt;" style="rounded=1;whiteSpace=wrap;html=1;rotation=-90;" vertex="1" parent="1">
          <mxGeometry x="220.66000000000003" y="-785.87" width="20" height="12.33" as="geometry" />
        </mxCell>
        <mxCell id="ECn-hsQNccgbCTv3DtMF-2" value="&lt;div style=&quot;text-align: center;&quot;&gt;&lt;span style=&quot;background-color: initial; font-size: 10px;&quot;&gt;&lt;b&gt;app &lt;/b&gt;backend&lt;/span&gt;&lt;/div&gt;" style="text;whiteSpace=wrap;html=1;rotation=0;" vertex="1" parent="1">
          <mxGeometry x="304.94" y="-898.8100000000001" width="68.12" height="27" as="geometry" />
        </mxCell>
        <mxCell id="ECn-hsQNccgbCTv3DtMF-3" value="&lt;div style=&quot;text-align: center;&quot;&gt;&lt;span style=&quot;background-color: initial; font-size: 10px;&quot;&gt;&lt;b&gt;app &lt;/b&gt;backend&lt;/span&gt;&lt;/div&gt;" style="text;whiteSpace=wrap;html=1;rotation=0;" vertex="1" parent="1">
          <mxGeometry x="304.94000000000005" y="-795.63" width="68.12" height="27" as="geometry" />
        </mxCell>
        <mxCell id="ECn-hsQNccgbCTv3DtMF-4" value="&lt;div style=&quot;text-align: center;&quot;&gt;&lt;span style=&quot;background-color: initial; font-size: 10px;&quot;&gt;&lt;b&gt;app &lt;/b&gt;backend&lt;/span&gt;&lt;/div&gt;" style="text;whiteSpace=wrap;html=1;rotation=0;" vertex="1" parent="1">
          <mxGeometry x="304.94000000000005" y="-695.63" width="68.12" height="27" as="geometry" />
        </mxCell>
        <mxCell id="YKB5RN-4gdlWT_EcJPIz-70" value="" style="rounded=1;whiteSpace=wrap;html=1;fillColor=none;strokeWidth=0.5;dashed=1;dashPattern=8 8;" parent="1" vertex="1">
          <mxGeometry x="469" y="-965.1200000000001" width="120" height="345.13" as="geometry" />
        </mxCell>
        <mxCell id="ECn-hsQNccgbCTv3DtMF-7" value="" style="endArrow=classic;html=1;rounded=0;entryX=0.5;entryY=0;entryDx=0;entryDy=0;exitX=1.002;exitY=0.501;exitDx=0;exitDy=0;exitPerimeter=0;" edge="1" parent="1" source="YKB5RN-4gdlWT_EcJPIz-6" target="YKB5RN-4gdlWT_EcJPIz-69">
          <mxGeometry width="50" height="50" relative="1" as="geometry">
            <mxPoint x="380" y="-890" as="sourcePoint" />
            <mxPoint x="390" y="-920" as="targetPoint" />
          </mxGeometry>
        </mxCell>
      </root>
    </mxGraphModel>
  </diagram>
</mxfile>
